<svg width="54" height="54" viewBox="0 0 54 54" fill="none" xmlns="http://www.w3.org/2000/svg">
<path d="M13.1689 46.4561C11.7402 46.4561 11.332 45.2871 12.0557 44.3594C12.7607 43.4316 14.6162 41.3906 15.6553 39.6836C15.8037 39.4053 15.7109 39.127 15.4326 38.9785C9.47656 35.7871 5.82129 30.5732 5.82129 24.6357C5.82129 15.3027 15.1729 7.76953 26.8623 7.76953C38.5518 7.76953 47.9033 15.3027 47.9033 24.6357C47.9033 33.876 39.0342 41.4834 25.6562 41.4834C25.415 41.4834 25.1738 41.4648 24.9326 41.4463C24.6729 41.4463 24.4131 41.5391 24.0977 41.7617C20.9434 44.0254 15.3955 46.4561 13.1689 46.4561ZM17.9375 27.5859C19.459 27.5859 20.7021 26.3428 20.7021 24.8027C20.7021 23.2627 19.4404 22.0195 17.9375 22.0195C16.416 22.0195 15.1543 23.2627 15.1543 24.8027C15.1543 26.3428 16.416 27.5859 17.9375 27.5859ZM26.8623 27.5859C28.4023 27.5859 29.6455 26.3428 29.6455 24.8027C29.6455 23.2627 28.4023 22.0195 26.8623 22.0195C25.3223 22.0195 24.0791 23.2627 24.0791 24.8027C24.0791 26.3428 25.3223 27.5859 26.8623 27.5859ZM35.8057 27.5859C37.3086 27.5859 38.5889 26.3428 38.5889 24.8027C38.5889 23.2627 37.3086 22.0195 35.8057 22.0195C34.2656 22.0195 33.0225 23.2627 33.0225 24.8027C33.0225 26.3428 34.2656 27.5859 35.8057 27.5859Z" fill="white"/>
</svg>
