<svg width="24" height="24" viewBox="0 0 24 24" fill="none" xmlns="http://www.w3.org/2000/svg">
<path d="M17 14C16 14 15.14 14.47 14.6 15.2L9.88 12.84C9.96 12.57 10.01 12.3 10.01 12C10.01 11.7 9.96 11.42 9.88 11.15L14.6 8.79C15.14 9.53 16.01 10 17.01 10C18.69 10 20.01 8.68 20.01 7C20.01 5.32 18.69 4 17.01 4C15.33 4 14.01 5.32 14.01 7C14.01 7.1 14.03 7.19 14.04 7.28L9.04 9.78C8.51 9.3 7.81 9 7.01 9C5.33 9 4.00999 10.32 4.00999 12C4.00999 13.68 5.33 15 7.01 15C7.81 15 8.51999 14.7 9.04999 14.21L14.04 16.71C14.04 16.81 14.01 16.9 14.01 17C14.01 18.68 15.33 20 17.01 20C18.69 20 20.01 18.68 20.01 17C20.01 15.32 18.69 14 17.01 14H17ZM17 5.6C17.81 5.6 18.4 6.19 18.4 7C18.4 7.81 17.81 8.4 17 8.4C16.19 8.4 15.6 7.81 15.6 7C15.6 6.19 16.19 5.6 17 5.6ZM6.99999 13.4C6.18999 13.4 5.59999 12.81 5.59999 12C5.59999 11.19 6.18999 10.6 6.99999 10.6C7.80999 10.6 8.4 11.19 8.4 12C8.4 12.81 7.80999 13.4 6.99999 13.4ZM17 18.4C16.19 18.4 15.6 17.81 15.6 17C15.6 16.19 16.19 15.6 17 15.6C17.81 15.6 18.4 16.19 18.4 17C18.4 17.81 17.81 18.4 17 18.4Z" fill="white"/>
</svg>
