<svg width="54" height="54" viewBox="0 0 54 54" fill="none" xmlns="http://www.w3.org/2000/svg">
<g clip-path="url(#clip0_5_69)">
<path d="M25.1436 46.7715C22.4902 49.4248 19.7627 49.4619 17.0352 46.7529L5.29004 35.0264C2.5625 32.3174 2.61816 29.5713 5.27148 26.918L23.418 8.80859C24.8096 7.41699 25.5889 7.32422 27.5371 7.32422H34.6064C36.5732 7.32422 37.1855 7.80664 38.5771 9.19824L42.8447 13.4658C44.2549 14.876 44.7188 15.4883 44.7188 17.4551V24.5059C44.7188 26.4541 44.626 27.252 43.2344 28.6436L25.1436 46.7715ZM31.4893 22.168C32.9365 22.168 34.0312 21.0361 34.0312 19.626C34.0312 18.1973 32.9365 17.084 31.4893 17.084C30.0234 17.084 28.9473 18.1973 28.9473 19.626C28.9473 21.0361 30.0234 22.168 31.4893 22.168Z" fill="white"/>
</g>
<defs>
<clipPath id="clip0_5_69">
<rect width="54" height="54" fill="white"/>
</clipPath>
</defs>
</svg>
