<svg width="32" height="32" viewBox="0 0 32 32" fill="none" xmlns="http://www.w3.org/2000/svg">
<rect width="32" height="32" rx="16" fill="white" fill-opacity="0.1"/>
<path d="M8.61572 16.0518C8.61572 15.5972 8.99609 15.2168 9.44141 15.2168H15.4438V9.22363C15.4438 8.77832 15.8149 8.39795 16.2695 8.39795C16.7241 8.39795 17.1045 8.77832 17.1045 9.22363V15.2168H23.0977C23.543 15.2168 23.9233 15.5972 23.9233 16.0518C23.9233 16.5063 23.543 16.8774 23.0977 16.8774H17.1045V22.8799C17.1045 23.3252 16.7241 23.7056 16.2695 23.7056C15.8149 23.7056 15.4438 23.3252 15.4438 22.8799V16.8774H9.44141C8.99609 16.8774 8.61572 16.5063 8.61572 16.0518Z" fill="white"/>
</svg>
