<svg width="24" height="24" viewBox="0 0 24 24" fill="none" xmlns="http://www.w3.org/2000/svg">
<path d="M8.40088 21.561C7.05566 21.561 6.18359 20.7075 6.11865 19.3809L5.46924 5.88232H4.36523C3.99414 5.88232 3.66943 5.56689 3.66943 5.17725C3.66943 4.79688 3.99414 4.48145 4.36523 4.48145H8.57715V3.06201C8.57715 1.7168 9.44922 0.900391 10.8779 0.900391H14.4033C15.832 0.900391 16.7041 1.7168 16.7041 3.06201V4.48145H20.9438C21.3242 4.48145 21.6304 4.79688 21.6304 5.17725C21.6304 5.55762 21.3242 5.88232 20.9438 5.88232H19.8306L19.1904 19.3716C19.1255 20.6982 18.2349 21.561 16.9082 21.561H8.40088ZM10.0522 3.15479V4.48145H15.229V3.15479C15.229 2.62598 14.8579 2.28271 14.3013 2.28271H10.98C10.4233 2.28271 10.0522 2.62598 10.0522 3.15479ZM8.53076 20.1602H16.7598C17.3071 20.1602 17.7061 19.7705 17.7246 19.2139L18.3369 5.88232H6.92578L7.5752 19.2139C7.60303 19.7612 8.00195 20.1602 8.53076 20.1602ZM9.90381 18.5737C9.56055 18.5737 9.32861 18.3604 9.31934 18.0264L9.04102 8.10889C9.03174 7.78418 9.26367 7.56152 9.61621 7.56152C9.9502 7.56152 10.1821 7.7749 10.1914 8.09961L10.479 18.0264C10.4883 18.3511 10.2563 18.5737 9.90381 18.5737ZM12.6499 18.5737C12.2974 18.5737 12.0562 18.3511 12.0562 18.0264V8.10889C12.0562 7.78418 12.2974 7.56152 12.6499 7.56152C13.0024 7.56152 13.2529 7.78418 13.2529 8.10889V18.0264C13.2529 18.3511 13.0024 18.5737 12.6499 18.5737ZM15.4053 18.5737C15.0527 18.5737 14.8208 18.3511 14.8301 18.0264L15.1084 8.10889C15.1177 7.7749 15.3496 7.56152 15.6836 7.56152C16.0361 7.56152 16.2681 7.78418 16.2588 8.10889L15.9805 18.0264C15.9712 18.3604 15.7393 18.5737 15.4053 18.5737Z" fill="white"/>
</svg>
